<?xml version="1.0" ?><svg class="svg-icon" style="width: 1em; height: 1em;vertical-align: middle;fill: currentColor;overflow: hidden;" version="1.1" viewBox="0 0 1024 1024" xmlns="http://www.w3.org/2000/svg"><path d="M957.6 900.8H325.2l2-7.6c2.8-12 4.4-24 4.4-36 0-85.2-69.2-154.4-154.4-154.4-25.6 0-51.2 6.4-73.6 18.8l-9.2 5.2v-232.4l6-0.4c25.2-1.2 44.8-22 44.8-47.2h0.4c3.2-30 28.8-53.6 59.6-53.6s56.4 23.6 59.6 53.6h0.4c0 26 21.2 47.2 47.2 47.2 12.8 0 24.4-4.8 33.6-14 8.8-8.8 14-20.8 14-33.6h0.4c3.2-30 28.8-53.6 59.6-53.6s56.4 23.6 59.6 53.6h0.4c0 26 21.2 47.2 47.2 47.2 12.8 0 24.4-4.8 33.6-14 8.8-8.8 14-20.8 14-33.6h0.4c3.2-30 28.8-53.6 59.6-53.6s56.4 23.6 59.6 53.6h0.4c0 26 21.2 47.2 47.2 47.2 26 0 47.2-21.2 47.2-47.2h0.4c3.2-30 28.8-53.6 59.6-53.6s56.4 23.6 59.6 53.6h0.4c0 25.2 19.6 46 44.8 47.2l6 0.4v407.2z m-616.8-12.4h604v-382.8c-26.8-4-47.6-26-50.4-52.8h-0.4c0-26-21.2-47.2-47.2-47.2-26 0-47.2 21.2-47.2 47.2h-0.4c-3.2 30-28.8 53.6-59.6 53.6s-56.4-23.6-59.6-53.6c0-26-21.2-47.2-47.2-47.2-26 0-47.2 21.2-47.2 47.2h-0.4c-1.6 13.6-7.2 26.4-17.2 36-11.2 11.2-26.4 17.6-42.4 17.6-30.8 0-56.4-23.6-59.6-53.6h-0.4c0-26-21.2-47.2-47.2-47.2-26 0-47.2 21.2-47.2 47.2h-0.4c-1.6 13.6-7.2 26.4-17.2 36-11.2 11.2-26.4 17.6-42.4 17.6-30.8 0-56.4-23.6-59.6-53.6h-0.4c0-26-21.2-47.2-47.2-47.2-26 0-47.2 21.2-47.2 47.2h-0.4c-2.8 26.8-23.6 48.8-50.4 52.8v200c22-10.4 46-15.6 70.4-15.6 92 0 166.8 74.8 166.8 167.2 0.8 10.4-0.4 20.8-2.4 31.2z" fill="#4A555F"/><path d="M880 452.8c-0.4-18-14.8-32.8-32.8-32.8-18 0-32.8 14.8-32.8 32.8h-0.4c-3.2 38-35.2 68-74 68s-70.8-30-74-68h-0.4c0-18-14.8-32.8-32.8-32.8-18 0-32.8 14.8-32.8 32.8-1.6 17.6-8.8 33.6-21.6 46.4-14 14-32.8 21.6-52.8 21.6-38.8 0-70.8-30-74-68h-0.4c0-18-14.8-32.8-32.8-32.8-18 0-32.8 14.8-32.8 32.8h-0.4c-1.6 17.6-8.8 33.6-21.6 46.4-14 14-32.8 22-52.8 22-38.8 0-70.8-30-74-68h-0.4c0-18-14.8-32.8-32.8-32.8-18 0-32.8 14.8-32.8 32.8h-0.4c-2.4 30-22.8 54.8-50.4 64.4V684c18-5.6 36.8-8.8 56-8.8 100 0 181.6 81.6 181.6 181.6 0 5.6-0.4 11.2-0.8 16.8h88v-223.6h-26.4v-31.6h31.2c0-41.2 33.2-74.4 74.4-74.4s74.4 33.2 74.4 74.4h31.2v31.6h-24.8v223.6h324.8v-356.8c-26.8-9.2-47.2-34.4-49.6-64zM316.4 594.4c0 18-14.8 32.8-32.8 32.8H252c-18 0-32.8-14.8-32.8-32.8v-16.8c0-18 14.8-32.8 32.8-32.8h31.6c18 0 32.8 14.8 32.8 32.8v16.8z m519.2 0c0 18-14.8 32.8-32.8 32.8h-31.6c-18 0-32.8-14.8-32.8-32.8v-16.8c0-18 14.8-32.8 32.8-32.8h31.6c18 0 32.8 14.8 32.8 32.8v16.8z" fill="#E0E0E0"/><path d="M954.4 506.4c-30.8 0-56.4-23.6-59.6-53.6h-0.4c0-26-21.2-47.2-47.2-47.2-26 0-47.2 21.2-47.2 47.2h-0.4c-3.2 30-28.8 53.6-59.6 53.6s-56.4-23.6-59.6-53.6h-0.4c0-26-21.2-47.2-47.2-47.2-26 0-47.2 21.2-47.2 47.2h-0.4c-3.2 30-28.8 53.6-59.6 53.6s-56.4-23.6-59.6-53.6h-0.4c0-26-21.2-47.2-47.2-47.2-26 0-47.2 21.2-47.2 47.2h-0.4c-3.2 30-28.8 53.6-59.6 53.6s-56.4-23.6-59.6-53.6h-0.4c0-26-21.2-47.2-47.2-47.2-26 0-47.2 21.2-47.2 47.2h-0.4c-3.2 30-28.8 53.6-59.6 53.6-32.8 0-60-26.8-60-60v-80L153.6 200h744l116.4 166v80.4c0 33.2-26.8 60-59.6 60z m-47.6-60c0 26 21.2 47.2 47.2 47.2s47.2-21.2 47.2-47.2V370l-110.4-157.6H160.4L50 370v76.4c0 26 21.2 47.2 47.2 47.2 26 0 47.2-21.2 47.2-47.2h0.4c3.2-30 28.8-53.6 59.6-53.6s56.4 23.6 59.6 53.6h0.4c0 26 21.2 47.2 47.2 47.2 26 0 47.2-21.2 47.2-47.2h0.4c3.2-30 28.8-53.6 59.6-53.6s56.4 23.6 59.6 53.6h0.4c0 26 21.2 47.2 47.2 47.2 26 0 47.2-21.2 47.2-47.2h0.4c3.2-30 28.8-53.6 59.6-53.6s56.4 23.6 59.6 53.6h0.4c0 26 21.2 47.2 47.2 47.2 26 0 47.2-21.2 47.2-47.2h0.4c3.2-30 28.8-53.6 59.6-53.6 30.4 0 56 23.6 59.2 53.6z" fill="#4A555F"/><path d="M954.4 479.2c-18 0-32.8-14.8-32.8-32.8h-0.4c-3.2-38-35.2-68-74-68s-70.8 30-74 68h-0.4c0 18-14.8 32.8-32.8 32.8-18 0-32.8-14.8-32.8-32.8h-0.4c-3.2-38-35.2-68-74-68s-70.8 30-74 68h-0.4c0 18-14.8 32.8-32.8 32.8-18 0-32.8-14.8-32.8-32.8h-0.4c-3.2-38-35.2-68-74-68s-70.8 30-74 68H344c0 18-14.8 32.8-32.8 32.8-18 0-32.8-14.8-32.8-32.8h-0.4c-3.2-38-35.2-68-74-68s-70.8 30-74 68h-0.4c0 18-14.8 32.8-32.8 32.8-18 0-32.8-14.8-32.8-32.8V374.8l104-147.6h716l103.2 147.6v71.6c-0.4 18-14.8 32.8-32.8 32.8z" fill="#F68F6F"/><path d="M166 0h708v154.4h-708z" fill="#FFD552"/><path d="M193.2 133.6h-6.4V21.2h665.6v112.4H193.2z m6.4-100v87.2h640.8V33.6H199.6zM356.4 212.8h-37.6V154.4h12.4V200H344V154.4h12.4zM732.4 212.8h-37.6V154.4h12.4V200h12.8V154.4h12.4zM1008 374.4h-12.4v-12.4h12.4v12.4z m-25.2 0h-12.4v-12.4h12.4v12.4z m-25.2 0h-12.4v-12.4h12.4v12.4z m-24.8 0H920v-12.4h12.4v12.4z m-25.2 0h-12.4v-12.4h12.4v12.4z m-24.8 0h-12.4v-12.4h12.4v12.4z m-25.2 0h-12.4v-12.4h12.4v12.4z m-25.2 0H820v-12.4h12.4v12.4z m-24.8 0h-12.4v-12.4h12.4v12.4z m-25.2 0h-12.4v-12.4h12.4v12.4z m-24.8 0h-12.4v-12.4h12.4v12.4z m-25.2 0H720v-12.4h12.4v12.4z m-24.8 0h-12.4v-12.4h12.4v12.4z m-25.2 0h-12.4v-12.4h12.4v12.4z m-25.2 0h-12.4v-12.4h12.4v12.4z m-24.8 0H620v-12.4h12.4v12.4z m-25.2 0h-12.4v-12.4h12.4v12.4z m-24.8 0h-12.4v-12.4h12.4v12.4z m-25.2 0h-12.4v-12.4h12.4v12.4z m-25.2 0h-12.4v-12.4h12.4v12.4z m-24.8 0h-12.4v-12.4h12.4v12.4z m-25.2 0h-12.4v-12.4h12.4v12.4z m-24.8 0h-12.4v-12.4h12.4v12.4z m-25.2 0h-12.4v-12.4h12.4v12.4z m-24.8 0h-12.4v-12.4h12.4v12.4z m-25.2 0h-12.4v-12.4h12.4v12.4z m-25.2 0h-12.4v-12.4h12.4v12.4z m-24.8 0h-12.4v-12.4H332v12.4z m-25.2 0h-12.4v-12.4h12.4v12.4z m-24.8 0h-12.4v-12.4h12.4v12.4z m-25.2 0h-12.4v-12.4h12.4v12.4z m-25.2 0h-12.4v-12.4h12.4v12.4z m-24.8 0h-12.4v-12.4h12.4v12.4z m-25.2 0h-12.4v-12.4h12.4v12.4z m-24.8 0H144v-12.4h12.4v12.4z m-25.2 0h-12.4v-12.4h12.4v12.4z m-24.8 0h-12.4v-12.4h12.4v12.4z m-25.2 0h-12.4v-12.4h12.4v12.4z m-25.2 0H44v-12.4h12.4v12.4zM176.8 1024c-92 0-166.8-74.8-166.8-166.8s74.8-166.8 166.8-166.8S344 764.8 344 857.2 269.2 1024 176.8 1024z m0-321.6c-85.2 0-154.4 69.2-154.4 154.4s69.2 154.4 154.4 154.4 154.4-69.2 154.4-154.4-69.2-154.4-154.4-154.4z" fill="#4A555F"/><path d="M176.8 976c-65.6 0-119.2-53.2-119.2-119.2s53.2-119.2 119.2-119.2S296 791.2 296 857.2 242.4 976 176.8 976z" fill="#FFD552"/><path d="M176.8 999.6c-4.4 0-8.4 0-12.8-0.4l1.2-12c4.8 0.4 9.6 0.4 14.4 0.4l0.4 12.4c-1.2-0.4-2-0.4-3.2-0.4z m15.6-0.8l-1.2-12c4-0.4 7.6-1.2 11.6-1.6l2.4 12c-4 0.4-8.4 1.2-12.8 1.6z m-40.8-1.2c-4-0.8-8.4-1.6-12.4-2.8l3.2-11.6c3.6 1.2 7.6 2 11.2 2.4l-2 12z m66-3.6l-3.6-11.6c3.6-1.2 7.6-2.4 11.2-4l4.4 11.2c-4 1.6-8 3.2-12 4.4z m-90.8-3.2c-4-1.6-8-3.2-11.6-5.2l5.2-11.2c3.6 1.6 7.2 3.2 10.8 4.4l-4.4 12z m114.4-6.4l-5.6-10.8c3.6-1.6 6.8-3.6 10-5.6l6.4 10.4c-3.2 2-6.8 4-10.8 6zM104 979.6c-3.6-2-7.2-4.4-10.8-7.2l7.2-10c3.2 2.4 6.4 4.4 9.6 6.4l-6 10.8z m158.8-8.8l-7.2-9.6c3.2-2.4 6-4.8 8.8-7.6l8.4 9.2c-3.2 2.8-6.4 5.6-10 8z m-179.6-6c-3.2-2.8-6.4-5.6-9.2-8.8l8.8-8.4c2.8 2.8 5.6 5.6 8.4 8l-8 9.2z m198.4-11.2l-8.8-8.4c2.8-2.8 5.2-6 7.6-8.8l9.6 7.6c-2.4 3.2-5.2 6.8-8.4 9.6z m-216-7.2c-2.8-3.2-5.2-6.8-7.6-10.4l10-6.8c2 3.2 4.4 6.4 6.8 9.6l-9.2 7.6z m231.6-12.8l-10.4-6.4c2-3.2 4-6.8 6-10l10.8 5.6c-2 3.6-4 7.2-6.4 10.8z m-245.6-8.4c-2-3.6-4-7.6-5.6-11.6l11.2-4.8c1.6 3.6 3.2 7.2 5.2 10.4l-10.8 6z m257.6-14.4l-11.2-4.8c1.6-3.6 2.8-7.2 4-10.8l11.6 3.6c-1.6 4-2.8 8-4.4 12z m-268-9.2c-1.2-4-2.4-8-3.6-12.4l12-2.8c0.8 3.6 2 7.6 3.2 11.2l-11.6 4z m275.2-15.2l-12-2.4c0.8-3.6 1.6-7.6 2-11.6l12 1.6c-0.4 4-0.8 8.4-2 12.4z m-280.8-9.6c-0.4-4.4-0.8-8.4-1.2-12.8l12.4-0.8c0 4 0.4 7.6 1.2 11.6l-12.4 2z m284-15.6l-12.4-0.4v-4c0-2.8 0-5.2-0.4-8l12.4-0.8c0 2.8 0.4 5.6 0.4 8.4v4.8zM46.4 852l-12.4-0.4c0-4.4 0.4-8.4 1.2-12.8l12 1.6c0 3.6-0.4 7.6-0.8 11.6z m259.6-14.4c-0.4-4-1.2-7.6-2.4-11.6l12-2.8c1.2 4 2 8.4 2.4 12.4l-12 2z m-256.4-8.8l-12-2.8c0.8-4 2-8.4 3.2-12.4l11.6 3.6c-1.2 4-2 7.6-2.8 11.6z m250.8-14c-1.2-3.6-2.8-7.2-4.4-10.8l11.2-4.8 4.8 12-11.6 3.6z m-244-8.4l-11.2-4.8c1.6-4 3.6-8 5.6-11.6l10.8 5.6c-2 3.6-3.6 7.2-5.2 10.8z m234.4-12.8c-2-3.2-4-6.8-6-10l10-6.8c2.4 3.6 4.8 7.2 6.8 10.8l-10.8 6z m-223.2-7.6l-10.4-6.8c2.4-3.6 4.8-7.2 7.6-10.4l9.6 7.6c-2.4 3.2-4.8 6.4-6.8 9.6z m210.4-11.6c-2.4-3.2-5.2-6-7.6-8.8l8.8-8.4c2.8 3.2 6 6.4 8.4 9.6l-9.6 7.6z m-196-6.8l-8.8-8.4c2.8-3.2 6-6 9.2-8.8l8 9.2c-2.8 2.4-5.6 5.2-8.4 8z m179.6-10c-2.8-2.4-6-4.8-9.2-7.2l7.2-10c3.6 2.4 6.8 5.2 10 8l-8 9.2zM99.6 752l-7.2-10c3.6-2.4 6.8-4.8 10.4-7.2l6.4 10.4c-3.6 2.4-6.8 4.4-9.6 6.8z m142.8-8c-3.2-2-6.8-3.6-10.4-5.6l5.2-11.2c4 1.6 7.6 3.6 11.2 6l-6 10.8z m-123.2-4l-5.6-10.8c4-2 7.6-3.6 11.6-5.2l4.4 11.6c-3.2 1.2-6.8 2.8-10.4 4.4z m102-5.6c-3.6-1.2-7.2-2.4-11.2-3.6l3.2-12c4 1.2 8 2.4 12 4l-4 11.6z m-80-2.8l-3.2-11.6c4-1.2 8.4-2 12.4-2.8l2.4 12c-4.4 0.4-8 1.2-11.6 2.4z m57.6-3.2c-4-0.8-7.6-1.2-11.6-1.6l0.8-12c4.4 0.4 8.4 0.8 12.8 1.6l-2 12z m-34.8-1.2l-1.2-12c4.4-0.4 8.4-0.8 12.8-0.8v12.4c-4-0.4-8 0-11.6 0.4zM130 842.4c-16.8 0-30.8-13.2-32-30-1.2-17.6 12-32.8 29.6-34 17.6-1.2 32.8 12.4 34 29.6 1.2 17.6-12 32.8-29.6 34-0.8 0.4-1.2 0.4-2 0.4z m0-51.2h-1.2c-10.8 0.8-18.8 10-18 20.8 0.8 10.8 10 18.8 20.8 18 10.8-0.8 18.8-10 18-20.8-0.8-10-9.6-18-19.6-18zM223.2 938.8c-16.8 0-30.8-13.2-32-30-0.4-8.4 2.4-16.8 8-23.2 5.6-6.4 13.6-10.4 22-10.8 17.6-1.2 32.8 12.4 34 29.6 0.4 8.4-2.4 16.8-8 23.2-5.6 6.4-13.6 10.4-22 10.8-0.4 0.4-1.2 0.4-2 0.4z m0-51.2h-1.2c-10.8 0.8-18.8 10-18 20.8 0.8 10.8 10 18.8 20.8 18 5.2-0.4 10-2.8 13.2-6.4 3.6-4 5.2-8.8 4.8-14-0.8-10.4-9.2-18.4-19.6-18.4zM235.008 780.944l9.332 8.164-122.48 139.984-9.332-8.164zM612 900.8h-172.4V644H612v256.8z m-160-12.4h147.2v-232H452v232zM802.8 633.2h-31.6c-21.6 0-38.8-17.6-38.8-38.8v-16.8c0-21.6 17.6-38.8 38.8-38.8h31.6c21.6 0 38.8 17.6 38.8 38.8v16.8c0.4 21.6-17.2 38.8-38.8 38.8z m-31.6-82c-14.4 0-26.4 12-26.4 26.4v16.8c0 14.4 12 26.4 26.4 26.4h31.6c14.4 0 26.4-12 26.4-26.4v-16.8c0-14.4-12-26.4-26.4-26.4h-31.6z" fill="#4A555F"/><path d="M780.8 544.8h12.4v82h-12.4z" fill="#4A555F"/><path d="M738.4 579.6h97.2v12.4h-97.2zM283.6 633.2H252c-21.6 0-38.8-17.6-38.8-38.8v-16.8c0-21.6 17.6-38.8 38.8-38.8h31.6c21.6 0 38.8 17.6 38.8 38.8v16.8c0.4 21.6-17.2 38.8-38.8 38.8zM252 551.2c-14.4 0-26.4 12-26.4 26.4v16.8c0 14.4 12 26.4 26.4 26.4h31.6c14.4 0 26.4-12 26.4-26.4v-16.8c0-14.4-12-26.4-26.4-26.4H252z" fill="#4A555F"/><path d="M261.6 544.8h12.4v82h-12.4z" fill="#4A555F"/><path d="M219.2 579.6h97.2v12.4H219.2zM636.8 656.4h-224v-44h224v44z m-211.2-12.4h198.8v-19.2h-198.8v19.2z" fill="#4A555F"/><path d="M605.6 624.8h-161.2v-6.4c0-44.4 36-80.8 80.8-80.8s80.8 36 80.8 80.8v6.4z m-148.4-12.4h135.6c-3.2-34.8-32.4-62-68-62s-64.4 27.6-67.6 62z" fill="#4A555F"/><path d="M738.4 579.6h48.8v12.4h-48.8z" fill="#4A555F"/><path d="M219.2 579.6H268v12.4H219.2z" fill="#4A555F"/><path d="M518.8 544.4h12.4v74.4h-12.4z" fill="#4A555F"/><path d="M490 782c-12.8 0-23.2-10.4-23.2-23.2 0-12.8 10.4-23.2 23.2-23.2 12.8 0 23.2 10.4 23.2 23.2-0.4 12.8-10.8 23.2-23.2 23.2z m0-34c-6 0-10.8 4.8-10.8 10.8 0 6 4.8 10.8 10.8 10.8 6 0 10.8-4.8 10.8-10.8-0.4-6-5.2-10.8-10.8-10.8z" fill="#4A555F"/></svg>